<svg xmlns="http://www.w3.org/2000/svg" viewBox="0 0 750 232" role="img" aria-labelledby="rally-braid-title rally-braid-desc" fill="#10264c" font-family="Arial, Microsoft YaHei, sans-serif" font-size="14"><title id="rally-braid-title">G01_02 原逐事件交换编织图：第三回合</title><desc id="rally-braid-desc">位置依据真实片段时间，圆与方分别表示两个方向，菱形为未知。四个回合不跨断点连线。短横只标原表中的未出现回应。两侧人物是AI生成场景示意，与事件身份不对应。</desc><defs><symbol id="rally-shuttle" viewBox="0 0 100 100"><g fill="none" stroke="currentColor" stroke-width="2"><path d="M40 72L8 13Q50 3 92 13L60 72Z"></path><path d="M20 11l24 61M35 8l12 64M50 8v64M65 8L53 72M80 11L56 72M21 37q30-8 58 0M31 56q20-5 39 0"></path><path d="M40 72h20v10q-10 15-20 0Z" fill="currentColor"></path></g></symbol><symbol id="rally-racket" viewBox="0 0 100 130"><g fill="none" stroke="currentColor" stroke-width="2"><ellipse cx="50" cy="36" rx="28" ry="32"></ellipse><ellipse cx="50" cy="36" rx="24" ry="28"></ellipse><path d="M34 14v44M42 10v52M50 8v56M58 10v52M66 14v44M28 20h44M26 28h48M26 36h48M26 44h48M28 52h44M41 67l9 12 9-12M50 79v27"></path><rect x="46" y="106" width="8" height="22" fill="currentColor"></rect></g></symbol><symbol id="rally-court" viewBox="0 0 300 145"><g fill="none" stroke="currentColor" stroke-width="1.4"><rect x="15" y="15" width="270" height="115"></rect><path d="M15 25h270M15 120h270M150 15v115M85 15v115M215 15v115M15 72.5h70M215 72.5h70M27 15v115M273 15v115"></path><path d="M150 4v137" stroke-width="3"></path></g></symbol></defs><metadata>Source: assets/composition/rally-events.json, DPE_G01_02</metadata><g fill="none" stroke="#a9bce5"><path d="M100 63H690M100 106H690M100 149H690"></path><path d="M100 36V168"></path><path d="M218 36V168"></path><path d="M336 36V168"></path><path d="M454 36V168"></path><path d="M572 36V168"></path><path d="M690 36V168"></path></g><text x="351.61617899999976" y="23" text-anchor="middle">R3</text><path d="M106.87054999999918 63L210.90088400000104 106" fill="none" stroke="#174ac0" stroke-width="2" stroke-dasharray="4 5"></path><path d="M210.90088400000104 106L301.36652800000184 63" fill="none" stroke="#174ac0" stroke-width="2" stroke-dasharray="4 5"></path><path d="M301.36652800000184 63L387.8984059999939 149" fill="none" stroke="#174ac0" stroke-width="2"></path><path d="M387.8984059999939 149L462.63040199999637 63" fill="none" stroke="#174ac0" stroke-width="2"></path><path d="M462.63040199999637 63L533.4293400000017 149" fill="none" stroke="#174ac0" stroke-width="2"></path><path d="M533.4293400000017 149L596.3618080000003 63" fill="none" stroke="#174ac0" stroke-width="2"></path><g data-record-id="REF12_aa391de225034b92"><title>事件7，16.06秒</title><circle cx="106.87054999999918" cy="63" r="5" fill="#10264c"></circle><text x="115.87054999999918" y="68" font-size="13">07</text></g><path d="M210.90088400000104 36V168" stroke="#174ac0" stroke-dasharray="2 4"></path><g data-record-id="REF12_d8ae5d007623747f"><title>事件8，16.94秒</title><path d="M210.90088400000104 100l6 6-6 6-6-6Z" fill="#dce7fb" stroke="#10264c" stroke-width="1.5"></path><text x="219.90088400000104" y="111" font-size="13">08</text></g><g data-record-id="REF12_bdef9f30ccbabf0f"><title>事件9，17.71秒</title><circle cx="301.36652800000184" cy="63" r="5" fill="#10264c"></circle><text x="310.36652800000184" y="68" font-size="13">09</text></g><g data-record-id="REF12_5bb77c3eb38c9da7"><title>事件10，18.44秒</title><rect x="382.8984059999939" y="144" width="10" height="10" fill="#10264c"></rect><text x="396.8984059999939" y="154" font-size="13">10</text></g><g data-record-id="REF12_65bb9893f8177024"><title>事件11，19.07秒</title><circle cx="462.63040199999637" cy="63" r="5" fill="#10264c"></circle><text x="471.63040199999637" y="68" font-size="13">11</text></g><g data-record-id="REF12_93566f29af532c51"><title>事件12，19.67秒</title><rect x="528.4293400000017" y="144" width="10" height="10" fill="#10264c"></rect><text x="542.4293400000017" y="154" font-size="13">12</text></g><g data-record-id="REF12_6a332482ea8f81d8"><title>事件13，20.21秒</title><circle cx="596.3618080000003" cy="63" r="5" fill="#10264c"></circle><text x="605.3618080000003" y="68" font-size="13">13</text></g><path d="M598.3618080000003 76h24" stroke="#10264c" stroke-width="2"></path><text x="100" y="190" text-anchor="middle">16</text><text x="218" y="190" text-anchor="middle">17</text><text x="336" y="190" text-anchor="middle">18</text><text x="454" y="190" text-anchor="middle">19</text><text x="572" y="190" text-anchor="middle">20</text><text x="690" y="190" text-anchor="middle">21</text><text x="690" y="216" text-anchor="end">G01_02 · R3 / 7 EVENTS / 4.15 s / CLIP TIME · s</text><text class="rally-lane-label" x="5" y="68" font-size="13">○ P01→P02</text><text class="rally-lane-label" x="5" y="110" font-size="13">◇ 未确认</text><text class="rally-lane-label" x="5" y="153" font-size="13">□ P02→P01</text></svg>